<?xml version="1.0" encoding="UTF-8" standalone="no"?><!DOCTYPE svg PUBLIC "-//W3C//DTD SVG 1.1//EN" "http://www.w3.org/Graphics/SVG/1.1/DTD/svg11.dtd"><svg width="100%" height="100%" viewBox="0 0 512 512" version="1.1" xmlns="http://www.w3.org/2000/svg" xmlns:xlink="http://www.w3.org/1999/xlink" xml:space="preserve" xmlns:serif="http://www.serif.com/" style="fill-rule:evenodd;clip-rule:evenodd;stroke-linejoin:round;stroke-miterlimit:2;"><path d="M405.333,64c23.47,0.001 42.667,19.198 42.667,42.667l0,298.666c0,23.469 -19.198,42.667 -42.667,42.667l-298.666,0c-23.469,0 -42.667,-19.198 -42.667,-42.667l0,-298.666c0,-23.469 19.197,-42.666 42.667,-42.667l298.666,0Zm-52.094,297.954l0,-3.329c-5.484,-10.315 -8.291,-25.526 -8.422,-45.633l0,-91.853c0,-23.763 -7.67,-42.206 -23.012,-55.327c-15.341,-13.122 -36.069,-19.683 -62.182,-19.683c-17.234,0 -32.772,2.97 -46.612,8.911c-13.84,5.941 -24.546,14.134 -32.119,24.579c-7.573,10.445 -11.359,21.804 -11.359,34.078l56.6,0c0,-7.965 2.709,-14.232 8.128,-18.802c5.418,-4.57 12.893,-6.855 22.424,-6.855c10.837,0 18.769,2.938 23.796,8.814c5.027,5.875 7.54,13.709 7.54,23.502l0,12.142l-26.048,0c-31.466,0.131 -55.523,6.202 -72.17,18.214c-16.647,12.012 -24.971,29.247 -24.971,51.704c0,18.279 6.822,33.425 20.467,45.437c13.644,12.012 30.846,18.018 51.606,18.018c21.935,0 39.757,-7.638 53.466,-22.914c1.176,7.573 3.069,13.905 5.68,18.997l57.188,0Zm-65.218,-96.357l0,36.427c-3.394,6.268 -8.617,11.262 -15.668,14.983c-7.05,3.721 -14.754,5.582 -23.11,5.582c-8.617,0 -15.407,-2.285 -20.368,-6.855c-4.962,-4.57 -7.442,-10.38 -7.442,-17.431l0.196,-3.329c1.827,-19.585 16.907,-29.377 45.241,-29.377l21.151,0Z" style="fill-rule:nonzero;"/></svg>