<?xml version="1.0" encoding="UTF-8" standalone="no"?><!DOCTYPE svg PUBLIC "-//W3C//DTD SVG 1.1//EN" "http://www.w3.org/Graphics/SVG/1.1/DTD/svg11.dtd"><svg width="100%" height="100%" viewBox="0 0 512 512" version="1.1" xmlns="http://www.w3.org/2000/svg" xmlns:xlink="http://www.w3.org/1999/xlink" xml:space="preserve" xmlns:serif="http://www.serif.com/" style="fill-rule:evenodd;clip-rule:evenodd;stroke-linejoin:round;stroke-miterlimit:2;"><path d="M388,96l-264,0c-15.4,0 -28,12.6 -28,28l0,264c0,15.4 12.6,28 28,28l264,0c15.4,0 28,-12.6 28,-28l0,-264c0,-15.4 -12.6,-28 -28,-28Zm0,284c0,4.4 -3.6,8 -8,8l-248,0c-4.4,0 -8,-3.6 -8,-8l0,-248c0,-4.4 3.6,-8 8,-8l248,0c4.4,0 8,3.6 8,8l0,248Z" style="fill-rule:nonzero;"/><rect x="152.302" y="96" width="52.439" height="184.462"/><rect x="171.504" y="278.596" width="14.037" height="137.404"/><rect x="248.984" y="278.596" width="14.031" height="137.404"/><rect x="326.415" y="278.596" width="14.025" height="137.404"/><rect x="229.78" y="96" width="52.439" height="184.462"/><rect x="307.208" y="96" width="52.439" height="184.462"/></svg>