<?xml version="1.0" encoding="UTF-8" standalone="no"?><!DOCTYPE svg PUBLIC "-//W3C//DTD SVG 1.1//EN" "http://www.w3.org/Graphics/SVG/1.1/DTD/svg11.dtd"><svg width="100%" height="100%" viewBox="0 0 512 512" version="1.1" xmlns="http://www.w3.org/2000/svg" xmlns:xlink="http://www.w3.org/1999/xlink" xml:space="preserve" xmlns:serif="http://www.serif.com/" style="fill-rule:evenodd;clip-rule:evenodd;stroke-linejoin:round;stroke-miterlimit:2;"><path d="M256.672,463.999l-0.065,0l0.132,0l-0.067,0Zm-1.383,0l0.082,0l-0.043,0l-0.039,0Zm-63.67,-10.312c-84.86,-26.224 -143.619,-104.263 -143.619,-197.687c0,-114.798 93.202,-208 208,-208c114.798,0 208,93.202 208,208c0,95.605 -55.042,173.043 -142.966,197.33c6.2,-1.787 0,0 0,0c0,0 -23.096,-47.982 -65.034,-47.982c-41.938,0 -64.381,48.339 -64.381,48.339c0,0 -1.947,-0.666 0,0Zm195.45,-230.444c16.618,0 30.11,13.492 30.11,30.11c0,16.619 -13.492,30.111 -30.11,30.111c-16.619,0 -30.111,-13.492 -30.111,-30.111c0,-16.618 13.492,-30.11 30.111,-30.11Zm-259.818,0c16.619,0 30.111,13.492 30.111,30.11c0,16.619 -13.492,30.111 -30.111,30.111c-16.618,0 -30.11,-13.492 -30.11,-30.111c0,-16.618 13.492,-30.11 30.11,-30.11Zm221.477,-92.778c16.619,0 30.111,13.492 30.111,30.111c0,16.618 -13.492,30.11 -30.111,30.11c-16.618,0 -30.11,-13.492 -30.11,-30.11c0,-16.619 13.492,-30.111 30.11,-30.111Zm-183.507,0c16.618,0 30.11,13.492 30.11,30.111c0,16.618 -13.492,30.11 -30.11,30.11c-16.618,0 -30.11,-13.492 -30.11,-30.11c0,-16.619 13.492,-30.111 30.11,-30.111Zm91.299,-37.202c16.618,0 30.11,13.492 30.11,30.11c0,16.618 -13.492,30.11 -30.11,30.11c-16.619,0 -30.111,-13.492 -30.111,-30.11c0,-16.618 13.492,-30.11 30.111,-30.11Z"/></svg>